<svg width="40" height="40" viewBox="0 0 40 40" fill="none" xmlns="http://www.w3.org/2000/svg">
<path d="M20 40C31.0457 40 40 31.0457 40 20C40 8.9543 31.0457 0 20 0C8.9543 0 0 8.9543 0 20C0 31.0457 8.9543 40 20 40Z" fill="white"/>
<path d="M19.375 22.25L14.0625 16.9375C13.8802 16.7552 13.7891 16.5339 13.7891 16.2734C13.7891 16.013 13.8802 15.7917 14.0625 15.6094L14.9609 14.75C15.1432 14.5677 15.3646 14.4766 15.625 14.4766C15.8854 14.4766 16.1068 14.5677 16.2891 14.75L20.0391 18.5L23.7891 14.75C23.9714 14.5677 24.1927 14.4766 24.4531 14.4766C24.7135 14.4766 24.9349 14.5677 25.1172 14.75L26.0156 15.6094C26.1979 15.7917 26.2891 16.013 26.2891 16.2734C26.2891 16.5339 26.1979 16.7552 26.0156 16.9375L20.7031 22.25C20.5208 22.4323 20.2995 22.5234 20.0391 22.5234C19.7786 22.5234 19.5573 22.4323 19.375 22.25Z" fill="#333333"/>
</svg>
